<?xml version="1.0" encoding="iso-8859-1"?>
<!-- Generator: Adobe Illustrator 19.1.0, SVG Export Plug-In . SVG Version: 6.00 Build 0)  -->
<svg version="1.1" id="Layer_1" xmlns="http://www.w3.org/2000/svg" xmlns:xlink="http://www.w3.org/1999/xlink" x="0px" y="0px"
	 width="20px" height="20px" viewBox="0 0 24 24" enable-background="new 0 0 24 24" xml:space="preserve">
<g>
	<g>
		<path fill="#D5DDDF" stroke="#D5DDDF" stroke-miterlimit="10" d="M23.5,19l-3.7-3.7c-0.7-0.7-2-0.7-2.7,0.1l-1.9,1.9
			c-0.1-0.1-0.2-0.1-0.4-0.2c-1.2-0.7-2.8-1.6-4.5-3.3C8.6,12,7.7,10.4,7,9.2C7,9.1,6.9,9,6.8,8.9l1.3-1.3L8.7,7
			c0.8-0.8,0.8-2,0-2.7L5.1,0.5c-0.7-0.7-2-0.7-2.7,0.1l-1,1.1l0,0C1,2.1,0.7,2.6,0.5,3.2c-0.2,0.5-0.3,1-0.4,1.5
			c-0.5,4.1,1.4,7.8,6.4,12.8c7,7,12.6,6.4,12.8,6.4c0.5-0.1,1-0.2,1.5-0.4c0.6-0.2,1.1-0.5,1.5-0.9l0,0l1.1-1
			C24.2,20.9,24.2,19.7,23.5,19z M22.6,20.9l-0.5,0.5l-0.2,0.2c-0.3,0.3-0.8,0.7-1.5,1c-0.4,0.2-0.8,0.3-1.3,0.3
			c-0.1,0-5.3,0.5-11.8-6.1C1.7,11.2,0.9,8,1.2,4.9c0-0.4,0.1-0.8,0.3-1.3c0.3-0.7,0.7-1.3,1-1.5l0.6-0.7C3.5,1.1,4,1.1,4.2,1.4
			l3.7,3.7c0.3,0.3,0.3,0.8,0,1.1L5.4,8.7l0.2,0.4C5.8,9.3,5.9,9.5,6,9.8c0.7,1.2,1.6,2.9,3.4,4.8c1.8,1.8,3.5,2.8,4.7,3.5
			c0.3,0.1,0.5,0.3,0.7,0.4l0.4,0.2l2.5-2.5c0.3-0.3,0.8-0.3,1.1-0.1l3.7,3.7C22.9,20.1,22.9,20.6,22.6,20.9z"/>
	</g>
</g>
</svg>
